<?xml version="1.0" encoding="UTF-8" standalone="no"?>
<svg
   width="89.566544pt"
   height="42.747803pt"
   version="1.1"
   viewBox="0 0 89.566544 42.747803"
   id="svg8"
   sodipodi:docname="bite.svg"
   inkscape:version="1.3.2 (091e20e, 2023-11-25, custom)"
   xmlns:inkscape="http://www.inkscape.org/namespaces/inkscape"
   xmlns:sodipodi="http://sodipodi.sourceforge.net/DTD/sodipodi-0.dtd"
   xmlns="http://www.w3.org/2000/svg"
   xmlns:svg="http://www.w3.org/2000/svg">
  <defs
     id="defs8" />
  <sodipodi:namedview
     id="namedview8"
     pagecolor="#ffffff"
     bordercolor="#000000"
     borderopacity="0.25"
     inkscape:showpageshadow="2"
     inkscape:pageopacity="0.0"
     inkscape:pagecheckerboard="0"
     inkscape:deskcolor="#d1d1d1"
     inkscape:document-units="pt"
     inkscape:zoom="1"
     inkscape:cx="319"
     inkscape:cy="927.5"
     inkscape:window-width="1920"
     inkscape:window-height="991"
     inkscape:window-x="-9"
     inkscape:window-y="-9"
     inkscape:window-maximized="1"
     inkscape:current-layer="svg8" />
  <g
     id="g8"
     style="opacity:0.84486;fill:#782121;fill-opacity:1"
     transform="matrix(0.08142472,0,0,0.08142472,-4.0716973,-26.463087)">
    <path
       d="m 436.7,370.47 c 7.8125,-22.734 62.527,-45.469 117.24,-45.469 10.422,0 32.824,3.0312 39.078,15.156 7.8164,15.156 -7.8164,68.203 -15.633,90.938 -7.8125,22.734 -15.633,45.469 -39.078,53.047 -23.449,7.5781 -39.082,0 -62.531,-22.734 -23.449,-22.734 -46.898,-68.203 -39.078,-90.938 z"
       id="path1"
       style="fill:#782121;fill-opacity:1" />
    <path
       d="m 780.27,370.47 c -7.8125,-22.734 -62.527,-45.469 -117.24,-45.469 -10.418,0 -32.824,3.0312 -39.078,15.156 -7.8164,15.156 7.8164,68.203 15.633,90.938 7.8125,22.734 15.633,45.469 39.078,53.047 23.453,7.5781 39.082,0 62.531,-22.734 23.449,-22.734 46.898,-68.203 39.078,-90.938 z"
       id="path2"
       style="fill:#782121;fill-opacity:1" />
    <path
       d="m 288.11,460.23 c 1.0469,-22.742 43.164,-57.227 91.078,-70.918 9.125,-2.6094 29.52,-5.4453 38.09,4.082 10.707,11.902 10.539,64.328 9.4922,87.07 -1.0508,22.75 -2.1016,45.496 -20.703,58.293 -18.602,12.797 -34.223,9.7812 -60.555,-5.1406 -26.328,-14.926 -58.453,-50.637 -57.402,-73.387 z"
       id="path3"
       style="fill:#782121;fill-opacity:1" />
    <path
       d="m 922.46,460.23 c -1.0469,-22.742 -43.168,-57.227 -91.078,-70.918 -9.125,-2.6094 -29.52,-5.4453 -38.09,4.082 -10.707,11.902 -10.539,64.328 -9.4922,87.07 1.0508,22.75 2.1016,45.496 20.703,58.293 18.6014,12.797 34.223,9.7812 60.551,-5.1406 26.332,-14.926 58.457,-50.637 57.406,-73.387 z"
       id="path4"
       style="fill:#782121;fill-opacity:1" />
    <path
       d="m 235.7,474.49 c 20.117,-10.184 55.809,26.953 71.508,65.938 15.703,38.984 10.152,46.414 6.1289,58.637 -5.0117,15.223 -42.605,34.254 -62.777,44.465 l -0.20703,0.10547 c -20.117,10.184 -44.57,-1.3633 -62.445,-17.844 -16.629,-15.332 -29.082,-36.754 -20.27,-68.363 8.1953,-29.402 47.945,-72.754 68.062,-82.938 z"
       id="path5"
       style="fill:#782121;fill-opacity:1" />
    <path
       d="m 975.11,474.49 c -20.117,-10.184 -55.809,26.953 -71.508,65.938 -15.699,38.984 -10.152,46.414 -6.1289,58.637 5.0117,15.223 42.609,34.254 62.777,44.465 l 0.21094,0.10547 c 20.113,10.184 44.56596,-1.3633 62.44096,-17.844 16.629,-15.332 29.082,-36.754 20.27,-68.363 -8.1953,-29.402 -47.94496,-72.754 -68.06196,-82.938 z"
       id="path6"
       style="fill:#782121;fill-opacity:1" />
    <path
       d="m 104,658.51 c 31.066,-33.195 67.887,-24.445 99.406,7.7422 31.516,32.184 28.832,57.449 26.469,74.785 -3.5312,25.859 -21.07,58.508 -41.762,89.438 -17.625,26.332 -45.004,19.867 -68.82,15.48 -22.152,-4.0781 -63.371,-10.41 -68.816,-54.191 -5.0664,-40.723 31.914,-110.16 53.523,-133.25 z"
       id="path7"
       style="fill:#782121;fill-opacity:1" />
    <path
       d="m 1096,658.51 c -31.062,-33.195 -67.891,-24.445 -99.402,7.7383 -31.52,32.184 -28.836,57.453 -26.473,74.789 3.5312,25.859 21.07,58.508 41.762,89.438 17.625,26.332 45.004,19.867 68.82,15.48 22.152,-4.0781 63.371,-10.41 68.82,-54.191 5.0625,-40.727 -31.918,-110.16 -53.527,-133.25 z"
       id="path8"
       style="fill:#782121;fill-opacity:1" />
  </g>
</svg>
