<svg xmlns="http://www.w3.org/2000/svg" width="78" height="44.2" preserveAspectRatio="xMidYMid" version="1"><path d="m17 21 3 2h1l2 1h-1 1s0 0 0 0l2 1-12-7h1s0 0 0 0l3 2h-1l1 1s0-1 0 0l1 1h-1 1l1 1h-1l2 1v2l2 2s0 0 0 0l1 1v1l1 2 1 1h-1l1 1 3 2h-1l13 7 2 1h1s0 0 0 0h2l2 1 1-1 1 1 1-1h2l4 1 1-1h2l2 1h1l2 1 4 2s0 0 0 0l3 2-1-1 2 1s0 0 0 0l2 1s0 0 0 0l2 1s0 0 0 0 0 0 0 0l2 1c1 0 0 0 0 0h1l3 2-13-9v0l-1-1v1l-1-1-2-1s1 0 0 0l-2-1-2-1-3-1s0 0 0 0l-2-2v1l-2-1s0 0 0 0l-1-1h-1l-1-1 1 1-5-2h-9v1c-5-1-1-2-4-1h-3s0 0 0 0h-1s0 0 0 0l-2-1 13 7-2-1c0-2 0 0-2-2h1l-2-3s0 0 0 0l-1-1v-1h-1c1-1 4 2 0-1l-1-2s0 0 0 0l-1-1v-1l-1-1h1l-2-1v-1h-1s1 0 0 0l-3-2-12-7-2-1h-1l-2-1-1-1s0 0 0 0l-2-1v1l-1-1 12 8Z" style="opacity:.771963;fill:#782121;fill-opacity:.625251;stroke:#000;stroke-width:0;stroke-linecap:round;stroke-linejoin:round" transform="translate(-5 -11)"/><path d="m17 19 4 1-1-1 1 1h1l1 1h2s0 0 0 0l1 1-12-7h1l1 1 2 1c0 1 0 0 0 0l14 9 2 1-1-1 4 2-1-1 2 1s0 0 0 0h1s0 0 0 0l1 1h2l2 1s0 0 0 0 0 0 0 0h1l3 1s0 0 0 0l3 1 3 2h1c-12-7-9-10-12-6l3 2h1l1 1 17 11h2l2 1s-1 0 0 0l1 1-12-7 1 1 3 1v1c1 1 2 0 1 1l2 1h-1l1 1 2 2 1 1 1 1 1 1 13 7v0l-1-1 1-1-2-2-2-1v-1l-2-1-1-1-1-1-2-2s0 0 0 0h-1l-14-9h-1l-3-1 12 6h-1s0 0 0 0v-1l-2-1-2-1s0 0 0 0l-3-2v-1h-1l-15-9-2-1v1-1h-2l-2-1s0 0 0 0l-1-1v1l-3-2s0 0 0 0 0 0 0 0l-3-1v1l-2-1-1-1v1s0 0 0 0l-1-1h-1l-1-1h-2c0-1 0 0 0 0l-1-1c-1 0 0 0 0 0l12 7-2-1-1-1-15-8-2-2v1l-2-1s0 0 0 0l-3-1s0 0 0 0H6l11 8Z" style="opacity:.771963;fill:#782121;fill-opacity:.625251;stroke:#000;stroke-width:0;stroke-linecap:round;stroke-linejoin:round" transform="translate(-5 -11)"/><path d="m38 32 4 2 2 1h2l4 2c5 3 14 8-9-6l2 2 13 6v0s1 0 0 0L38 28v1l-3-2 1 1-4-2 1 1-6-3 11 8z" style="opacity:.771963;fill:#782121;fill-opacity:.625251;stroke:#000;stroke-width:0;stroke-linecap:round;stroke-linejoin:round" transform="translate(-5 -11)"/><path d="m22 22 2 2v1c1 1 2 0 1 1l3 3 1 1s0 0 0 0l2 1v1s0 0 0 0l2 1v1l15 8-1-1 2 1s0 0 0 0l2-1h2v-1h1-1c5 2 12 6-10-6h1v1l2 1s0 0 0 0l2 1 13 8h2l2 1v-1h2l-1-1v-1l-16-9s0 0 0 0l-2-1s0 0 0 0l-2-1s0 0 0 0l-2-1s0 0 0 0l-3-1h-1l-2-1s0 0 0 0l-2-1h-1l-3-1-1-1 11 7c-4-4-9-8-14-9l11 8v0l-10-6 15 9s0 0 0 0l5 2h1s0 0 0 0l7 3 3 1s0 0 0 0l3 2 3 1s0 0 0 0l-13-7h2-4l-2-1s-1 0 0 0l11 7-1-1-3-2a1165 1165 0 0 0-14-8h-1s0 0 0 0c-1 1-4-1-3 1h-2s0 0 0 0l-2-1 13 8-1-1-1-1s0 0 0 0l-2-1-1-1-3-3-2-3v-1c-1 0 0 0 0 0l-15-7z" style="opacity:.771963;fill:#782121;fill-opacity:.625251;stroke:#000;stroke-width:0;stroke-linecap:round;stroke-linejoin:round" transform="translate(-5 -11)"/></svg>