<?xml version="1.0" encoding="UTF-8" standalone="no"?>
<svg
   width="105.7738"
   height="95.139252"
   aria-hidden="true"
   class="iconify iconify--emojione"
   viewBox="0 0 8.4619043 7.6111401"
   version="1.1"
   id="svg2"
   sodipodi:docname="kiss.svg"
   xmlns:inkscape="http://www.inkscape.org/namespaces/inkscape"
   xmlns:sodipodi="http://sodipodi.sourceforge.net/DTD/sodipodi-0.dtd"
   xmlns="http://www.w3.org/2000/svg"
   xmlns:svg="http://www.w3.org/2000/svg">
  <defs
     id="defs2" />
  <sodipodi:namedview
     id="namedview2"
     pagecolor="#ffffff"
     bordercolor="#000000"
     borderopacity="0.25"
     inkscape:showpageshadow="2"
     inkscape:pageopacity="0.0"
     inkscape:pagecheckerboard="0"
     inkscape:deskcolor="#d1d1d1" />
  <g
     id="g2"
     transform="matrix(2.2870013,0,0,2.2870013,-67.237838,-70.833004)">
    <path
       fill="#c94747"
       d="m 29.8,33.3 c 0.3,-0.1 0.4,-0.2 0,-0.3 0,0 0.5,0.2 0.6,0 0.1,-0.1 -0.4,-0.2 -0.5,-0.3 0.1,0 0.6,0.3 0.7,0.1 0,0 0,-0.2 -0.3,-0.3 h 0.3 l -0.4,-0.4 c 0.1,0 0.2,0.3 0.4,0.3 l 0.2,-0.1 c -0.2,0 -0.3,0 -0.3,-0.2 0,0.2 0.4,0.1 0.6,0.2 v -0.2 c 0.2,0 0.2,-0.1 0.2,-0.3 V 32 l 0.3,0.1 0.1,0.2 0.2,-0.3 0.1,0.2 0.2,-0.3 v 0.2 L 32.5,32 c 0,0 0.5,-0.1 0.6,-0.3 l -0.3,-0.1 -0.1,0.2 v -0.3 c -0.2,-0.1 -0.1,0.2 -0.1,0.2 0,0 -0.2,-0.4 -0.3,-0.3 l -0.1,0.2 c 0,0 0,-0.3 -0.3,-0.4 0,0 0.1,0.4 0,0.4 l -0.1,-0.5 c -0.2,0 -0.4,-0.2 -0.6,-0.1 0,0 0.3,0.3 0.2,0.4 0,-0.1 -0.2,-0.3 -0.4,-0.3 -0.3,0.1 0,0.4 0,0.5 l -0.2,-0.3 -0.1,0.2 h -0.1 v 0.3 c 0,-0.1 0,-0.3 -0.2,-0.3 H 30 c -0.2,0.1 -0.4,0.6 -0.3,0.7 l 0.1,0.1 h -0.2 v 0.2 l 0.2,0.2 c 0,0 -0.1,-0.2 -0.2,-0.1 -0.2,0.4 0,0.4 0,0.4 h -0.1 v 0.3 l -0.1,0.2 c 0.1,0 0.3,0 0.3,-0.2 h 0.1"
       style="stroke-width:0.0686269"
       id="path1" />
    <path
       fill="#ed4c5c"
       d="m 32.5,32.1 c 0,0 -0.4,0 -0.5,0.2 0,0.2 0.5,0.2 0.6,0.4 l -0.7,-0.3 c -0.3,0 -0.2,0 -0.3,0.2 l 0.2,0.4 c 0,0 -0.1,-0.4 -0.2,-0.2 -0.2,0.2 0,0.3 0.2,0.6 L 31.5,33 H 31.3 L 31.6,33.6 31.2,33 H 31 v 0.4 c 0,-0.2 0,-0.6 -0.4,-0.5 -0.1,0.3 0,0.7 0,0.8 l -0.1,-0.6 h -0.3 c -0.2,0.1 -0.8,0.5 -0.7,0.6 l 0.8,0.4 V 34 c 0.1,0.1 0.1,0.3 0.3,0.3 V 34 c 0,0.1 0.3,0.3 0.5,0.2 V 34 c 0,0.1 0.4,0.2 0.5,0 l -0.1,-0.2 c 0,0 0,0.2 0.2,0.2 0.2,0 0,-0.4 0,-0.5 l 0.2,0.4 c 0.1,0 0.1,-0.1 0,-0.2 0.3,0.1 0.3,0 0.2,-0.3 l 0.2,0.3 c 0.2,-0.1 -0.1,-0.4 -0.1,-0.5 0,0 0.1,0.3 0.3,0.3 v -0.1 c 0,-0.3 -0.3,-0.5 -0.4,-0.6 l 0.5,0.5 V 33 c 0,0 0,0.2 0.2,0.2 l -0.1,-0.3 0.2,0.1 -0.2,-0.3 0.2,0.1 0.1,-0.9 -0.5,0.3"
       style="stroke-width:0.0686269"
       id="path2" />
  </g>
</svg>
