<svg xmlns="http://www.w3.org/2000/svg" width="800" height="800" aria-hidden="true" class="iconify iconify--emojione" viewBox="0 0 64 64"><path fill="#c94747" d="M29.8 33.3c.3-.1.4-.2 0-.3 0 0 .5.2.6 0 .1-.1-.4-.2-.5-.3.1 0 .6.3.7.1 0 0 0-.2-.3-.3h.3l-.4-.4c.1 0 .2.3.4.3l.2-.1c-.2 0-.3 0-.3-.2 0 .2.4.1.6.2v-.2c.2 0 .2-.1.2-.3v.2l.3.1.1.2.2-.3.1.2.2-.3v.2l.3-.1s.5-.1.6-.3l-.3-.1-.1.2v-.3c-.2-.1-.1.2-.1.2s-.2-.4-.3-.3l-.1.2s0-.3-.3-.4c0 0 .1.4 0 .4l-.1-.5c-.2 0-.4-.2-.6-.1 0 0 .3.3.2.4 0-.1-.2-.3-.4-.3-.3.1 0 .4 0 .5l-.2-.3-.1.2h-.1v.3c0-.1 0-.3-.2-.3H30c-.2.1-.4.6-.3.7l.1.1h-.2v.2l.2.2s-.1-.2-.2-.1c-.2.4 0 .4 0 .4h-.1v.3l-.1.2c.1 0 .3 0 .3-.2h.1" style="stroke-width:.0686269"/><path fill="#ed4c5c" d="M32.5 32.1s-.4 0-.5.2c0 .2.5.2.6.4l-.7-.3c-.3 0-.2 0-.3.2l.2.4s-.1-.4-.2-.2c-.2.2 0 .3.2.6l-.3-.4h-.2l.3.6-.4-.6H31v.4c0-.2 0-.6-.4-.5-.1.3 0 .7 0 .8l-.1-.6h-.3c-.2.1-.8.5-.7.6l.8.4V34c.1.1.1.3.3.3V34c0 .1.3.3.5.2V34c0 .1.4.2.5 0l-.1-.2s0 .2.2.2 0-.4 0-.5l.2.4c.1 0 .1-.1 0-.2.3.1.3 0 .2-.3l.2.3c.2-.1-.1-.4-.1-.5 0 0 .1.3.3.3v-.1c0-.3-.3-.5-.4-.6l.5.5V33s0 .2.2.2l-.1-.3.2.1-.2-.3.2.1.1-.9-.5.3" style="stroke-width:.0686269"/></svg>