<?xml version="1.0" encoding="UTF-8" standalone="no"?>
<svg
   fill="#000000"
   height="78.328064"
   preserveAspectRatio="xMidYMid"
   version="1"
   viewBox="0 0 119.39667 78.328064"
   width="119.39667"
   zoomAndPan="magnify"
   id="svg1"
   sodipodi:docname="bruise.svg"
   inkscape:version="1.3.2 (091e20e, 2023-11-25, custom)"
   xmlns:inkscape="http://www.inkscape.org/namespaces/inkscape"
   xmlns:sodipodi="http://sodipodi.sourceforge.net/DTD/sodipodi-0.dtd"
   xmlns="http://www.w3.org/2000/svg"
   xmlns:svg="http://www.w3.org/2000/svg">
  <sodipodi:namedview
     id="namedview1"
     pagecolor="#ffffff"
     bordercolor="#000000"
     borderopacity="0.25"
     inkscape:showpageshadow="2"
     inkscape:pageopacity="0.0"
     inkscape:pagecheckerboard="0"
     inkscape:deskcolor="#d1d1d1"
     inkscape:zoom="1"
     inkscape:cx="833"
     inkscape:cy="921.5"
     inkscape:window-width="1920"
     inkscape:window-height="991"
     inkscape:window-x="-9"
     inkscape:window-y="-9"
     inkscape:window-maximized="1"
     inkscape:current-layer="svg1" />
  <defs
     id="defs1" />
  <g
     id="g4"
     transform="translate(-658.31183,-549.56488)">
    <path
       style="opacity:0.454976;fill:#aa4400;stroke:#000000;stroke-width:0;stroke-linecap:round;stroke-linejoin:round"
       id="path1"
       d="m 671.5152,549.56488 c 3.53863,5.6187 6.70662,11.45578 9.73473,17.36151 3.32206,7.07272 6.37693,14.28156 9.84152,21.28733 1.10622,2.23689 4.57231,8.75606 5.7786,11.03702 3.02632,5.54566 6.25881,10.96605 9.79267,16.20151 0,0 13.14034,5.71099 13.14034,5.71099 v 0 c -3.78804,-5.18676 -7.16352,-10.6401 -10.30863,-16.24139 -5.64496,-10.47672 -10.86878,-21.15787 -15.38855,-32.1755 -2.79263,-5.79896 -5.85832,-11.44794 -8.90338,-17.11506 z" />
    <path
       style="opacity:0.454976;fill:#aa4400;stroke:#000000;stroke-width:0;stroke-linecap:round;stroke-linejoin:round"
       id="path2"
       d="m 696.33208,550.32023 c 0.22631,3.56387 1.20852,6.96664 2.54914,10.25418 2.56157,5.96159 6.04587,11.45682 9.45225,16.95897 3.22402,5.04417 7.18989,9.53371 11.25427,13.90448 3.2006,3.23246 5.89331,6.86162 8.40678,10.63698 2.28624,4.07935 4.92191,7.95659 7.18365,12.04756 1.11643,2.34201 2.10229,4.77224 2.71273,7.29844 0,0 13.40278,6.47208 13.40278,6.47208 v 0 c -0.52696,-2.71107 -1.56395,-5.24759 -2.70106,-7.75703 -2.22361,-4.15383 -5.04789,-7.94789 -7.17389,-12.16392 -2.45025,-3.91303 -5.16633,-7.62817 -8.41345,-10.92933 -4.10969,-4.30786 -8.14063,-8.72301 -11.45694,-13.68729 -3.44596,-5.36679 -6.87342,-10.79509 -9.39443,-16.67152 -1.33173,-3.05837 -2.27464,-6.21948 -2.48599,-9.56865 z" />
    <path
       style="opacity:0.454976;fill:#aa4400;stroke:#000000;stroke-width:0;stroke-linecap:round;stroke-linejoin:round"
       id="path3"
       d="m 670.55897,589.67631 c 7.01855,-2.71743 14.00853,-5.50548 21.04209,-8.18415 9.56711,-3.72738 19.3633,-6.79284 29.0505,-10.17892 5.59238,-1.71628 10.85805,-4.28618 16.29915,-6.39716 0,0 -12.19115,-8.15444 -12.19115,-8.15444 v 0 c -5.26293,2.26033 -10.45371,4.70583 -15.85967,6.61759 -9.62372,3.54964 -19.39569,6.67839 -29.02057,10.22364 -7.16596,2.65148 -14.25361,5.53217 -21.56748,7.76388 z" />
    <path
       style="opacity:0.454976;fill:#aa4400;stroke:#000000;stroke-width:0;stroke-linecap:round;stroke-linejoin:round"
       id="path4"
       d="m 683.26216,614.08449 c 6.44919,-5.10729 14.29663,-8.19878 21.99017,-10.90491 8.11179,-2.96041 16.54945,-4.71873 24.93487,-6.67225 5.64893,-1.36037 11.25071,-2.89014 16.89015,-4.28708 6.01486,-1.53272 12.08912,-2.79569 18.08011,-4.42295 4.16133,-1.08774 8.30185,-2.17335 12.55103,-2.85711 0,0 -11.99633,-8.40029 -11.99633,-8.40029 v 0 c -4.22022,0.80756 -8.3445,1.95288 -12.49577,3.05377 -5.9893,1.60643 -12.05329,2.90221 -18.07007,4.39973 -5.59941,1.43099 -11.21753,2.78538 -16.78454,4.33879 -8.32884,2.0386 -16.68879,4.00926 -24.74764,6.9884 -7.94184,2.89276 -15.965,6.11636 -22.96242,10.92028 z" />
  </g>
</svg>
