<?xml version="1.0" encoding="UTF-8" standalone="no"?>
<svg
   viewBox="0 0 3613.05 3460.52"
   version="1.1"
   id="svg6"
   sodipodi:docname="bandage.svg"
   inkscape:version="1.3.2 (091e20e, 2023-11-25, custom)"
   xmlns:inkscape="http://www.inkscape.org/namespaces/inkscape"
   xmlns:sodipodi="http://sodipodi.sourceforge.net/DTD/sodipodi-0.dtd"
   xmlns:xlink="http://www.w3.org/1999/xlink"
   xmlns="http://www.w3.org/2000/svg"
   xmlns:svg="http://www.w3.org/2000/svg">
  <sodipodi:namedview
     id="namedview6"
     pagecolor="#ffffff"
     bordercolor="#000000"
     borderopacity="0.25"
     inkscape:showpageshadow="2"
     inkscape:pageopacity="0.0"
     inkscape:pagecheckerboard="0"
     inkscape:deskcolor="#d1d1d1"
     inkscape:zoom="1"
     inkscape:cx="726"
     inkscape:cy="2756.5"
     inkscape:window-width="1920"
     inkscape:window-height="991"
     inkscape:window-x="-9"
     inkscape:window-y="-9"
     inkscape:window-maximized="1"
     inkscape:current-layer="svg6" />
  <defs
     id="defs5">
    <style
       id="style1"> .cls-1, .cls-2, .cls-3, .cls-4 { stroke: #000; stroke-width: 13.05px; } .cls-1, .cls-3 { stroke-linecap: square; } .cls-1 { fill: url(#Dull_Brass); } .cls-2, .cls-4 { stroke-linecap: round; stroke-linejoin: round; } .cls-2 { fill: url(#Dull_Brass-2); } .cls-3 { fill: url(#Dull_Brass-3); } .cls-4 { fill: url(#Dull_Brass-4); } </style>
    <linearGradient
       id="Dull_Brass"
       data-name="Dull Brass"
       x1="6.53"
       y1="1730.25"
       x2="3606.53"
       y2="1730.25"
       gradientUnits="userSpaceOnUse">
      <stop
         offset="0.01"
         stop-color="#ebc17d"
         id="stop1" />
      <stop
         offset="0.19"
         stop-color="#dfb77c"
         id="stop2" />
      <stop
         offset="0.6"
         stop-color="#c08329"
         id="stop3" />
      <stop
         offset="0.87"
         stop-color="#eabe81"
         id="stop4" />
      <stop
         offset="1"
         stop-color="#eedcc3"
         id="stop5" />
    </linearGradient>
    <linearGradient
       id="Dull_Brass-2"
       x1="1333.72"
       y1="908.98"
       x2="2602.2"
       y2="3106.05"
       gradientTransform="translate(-97.88,-167.17)"
       xlink:href="#Dull_Brass" />
    <linearGradient
       id="Dull_Brass-3"
       x1="1190.89"
       y1="3421.71"
       x2="2422.16"
       y2="38.82"
       xlink:href="#Dull_Brass" />
    <linearGradient
       id="Dull_Brass-4"
       x1="1333.72"
       y1="908.98"
       x2="2602.2"
       y2="3106.05"
       gradientTransform="translate(-97.87,-167.17)"
       xlink:href="#Dull_Brass" />
    <linearGradient
       inkscape:collect="always"
       xlink:href="#Dull_Brass"
       id="linearGradient6"
       gradientUnits="userSpaceOnUse"
       x1="6.53"
       y1="1730.25"
       x2="3606.53"
       y2="1730.25" />
  </defs>
  <title
     id="title5">Bandaids</title>
  <g
     id="Layer_2"
     data-name="Layer 2"
     transform="matrix(0.03492642,0,0,0.03311183,880.64128,2613.8242)">
    <g
       id="Bandaids">
      <g
         id="Layer_2-2"
         data-name="Layer 2">
        <path
           class="cls-1"
           d="m 3500.34,1417.16 c -33.72,-41.3 -73.1,-73.79 -117.05,-96.56 -46,-23.81 -94.86,-35.88 -145.32,-35.88 H 375.08 c -50.44,0 -99.35,12.08 -145.31,35.89 -44,22.77 -83.34,55.27 -117.06,96.56 C 44.23,1501 6.53,1612.23 6.53,1730.25 c 0,118.02 37.7,229.23 106.18,313.1 33.72,41.29 73.1,73.79 117.06,96.55 46,23.82 94.87,35.9 145.31,35.89 H 3238 a 309.44,309.44 0 0 0 107.06,-19 327.42,327.42 0 0 0 38.24,-16.86 c 44,-22.77 83.36,-55.26 117.07,-96.55 68.48,-83.88 106.19,-195.06 106.19,-313.11 0,-118.05 -37.75,-229.27 -106.22,-313.11 z M 475.31,1943 c -17.3,0 -31.32,-12.29 -31.32,-27.41 0,-15.12 14,-27.41 31.32,-27.41 17.32,0 31.32,12.27 31.32,27.41 0,15.14 -14.03,27.41 -31.32,27.41 z m 0,-185.33 c -17.3,0 -31.32,-12.28 -31.32,-27.41 0,-15.13 14,-27.41 31.32,-27.41 17.32,0 31.32,12.27 31.32,27.41 0,15.14 -14.03,27.41 -31.32,27.41 z m 0,-185.33 c -17.3,0 -31.32,-12.28 -31.32,-27.41 0,-15.13 14,-27.4 31.32,-27.4 17.32,0 31.32,12.26 31.32,27.4 0,15.14 -14.03,27.41 -31.32,27.41 z M 668.47,1943 c -17.31,0 -31.32,-12.29 -31.32,-27.41 0,-15.12 14,-27.41 31.32,-27.41 17.32,0 31.32,12.27 31.32,27.41 0,15.14 -14.03,27.41 -31.32,27.41 z m 0,-185.33 c -17.31,0 -31.32,-12.28 -31.32,-27.41 0,-15.13 14,-27.41 31.32,-27.41 17.32,0 31.32,12.27 31.32,27.41 0,15.14 -14.03,27.41 -31.32,27.41 z m 0,-185.33 c -17.31,0 -31.32,-12.28 -31.32,-27.41 0,-15.13 14,-27.4 31.32,-27.4 17.32,0 31.32,12.26 31.32,27.4 0,15.14 -14.03,27.41 -31.32,27.41 z M 861.63,1943 c -17.31,0 -31.33,-12.29 -31.33,-27.41 0,-15.12 14,-27.41 31.33,-27.41 17.33,0 31.37,12.27 31.37,27.41 0,15.14 -14.08,27.41 -31.37,27.41 z m 0,-185.33 c -17.31,0 -31.33,-12.28 -31.33,-27.41 0,-15.13 14,-27.41 31.33,-27.41 17.33,0 31.37,12.27 31.37,27.41 0,15.14 -14.08,27.41 -31.37,27.41 z m 0,-185.33 c -17.31,0 -31.33,-12.28 -31.33,-27.41 0,-15.13 14,-27.4 31.33,-27.4 17.33,0 31.32,12.26 31.32,27.4 0,15.14 -14.03,27.41 -31.32,27.41 z M 1054.78,1943 c -17.3,0 -31.32,-12.29 -31.32,-27.41 0,-15.12 14,-27.41 31.32,-27.41 17.32,0 31.33,12.27 31.33,27.41 0,15.14 -14.03,27.41 -31.33,27.41 z m 0,-185.33 c -17.3,0 -31.32,-12.28 -31.32,-27.41 0,-15.13 14,-27.41 31.32,-27.41 17.32,0 31.33,12.27 31.33,27.41 0,15.14 -14.03,27.41 -31.33,27.41 z m 0,-185.33 c -17.3,0 -31.32,-12.28 -31.32,-27.41 0,-15.13 14,-27.4 31.32,-27.4 17.32,0 31.33,12.26 31.33,27.4 0,15.14 -14.03,27.41 -31.33,27.41 z M 2558.28,1943 c -17.31,0 -31.32,-12.29 -31.32,-27.41 0,-15.12 14,-27.41 31.32,-27.41 17.32,0 31.32,12.27 31.32,27.41 0,15.14 -14.03,27.41 -31.32,27.41 z m 0,-185.33 c -17.31,0 -31.32,-12.28 -31.32,-27.41 0,-15.13 14,-27.41 31.32,-27.41 17.32,0 31.32,12.27 31.32,27.41 0,15.14 -14.03,27.41 -31.32,27.41 z m 0,-185.33 c -17.31,0 -31.32,-12.28 -31.32,-27.41 0,-15.13 14,-27.4 31.32,-27.4 17.32,0 31.32,12.26 31.32,27.4 0,15.14 -14.03,27.41 -31.32,27.41 z M 2751.44,1943 c -17.31,0 -31.33,-12.29 -31.33,-27.41 0,-15.12 14,-27.41 31.33,-27.41 17.33,0 31.32,12.27 31.32,27.41 0,15.14 -14.03,27.41 -31.32,27.41 z m 0,-185.33 c -17.31,0 -31.33,-12.28 -31.33,-27.41 0,-15.13 14,-27.41 31.33,-27.41 17.33,0 31.32,12.27 31.32,27.41 0,15.14 -14.03,27.41 -31.32,27.41 z m 0,-185.33 c -17.31,0 -31.33,-12.28 -31.33,-27.41 0,-15.13 14,-27.4 31.33,-27.4 17.33,0 31.32,12.26 31.32,27.4 0,15.14 -14.03,27.41 -31.32,27.41 z M 2944.6,1943 c -17.31,0 -31.33,-12.29 -31.33,-27.41 0,-15.12 14,-27.41 31.33,-27.41 17.33,0 31.32,12.27 31.32,27.41 0,15.14 -14.03,27.41 -31.32,27.41 z m 0,-185.33 c -17.31,0 -31.33,-12.28 -31.33,-27.41 0,-15.13 14,-27.41 31.33,-27.41 17.33,0 31.32,12.27 31.32,27.41 0,15.14 -14.03,27.41 -31.32,27.41 z m 0,-185.33 c -17.31,0 -31.33,-12.28 -31.33,-27.41 0,-15.13 14,-27.4 31.33,-27.4 17.33,0 31.32,12.26 31.32,27.4 0,15.14 -14.03,27.41 -31.32,27.41 z M 3137.75,1943 c -17.3,0 -31.32,-12.29 -31.32,-27.41 0,-15.12 14,-27.41 31.32,-27.41 17.32,0 31.33,12.27 31.33,27.41 0,15.14 -14.03,27.41 -31.33,27.41 z m 0,-185.33 c -17.3,0 -31.32,-12.28 -31.32,-27.41 0,-15.13 14,-27.41 31.32,-27.41 17.32,0 31.33,12.27 31.33,27.41 0,15.14 -14.03,27.41 -31.33,27.41 z m 0,-185.33 c -17.3,0 -31.32,-12.28 -31.32,-27.41 0,-15.13 14,-27.4 31.32,-27.4 17.32,0 31.33,12.26 31.33,27.4 0,15.14 -14.03,27.41 -31.33,27.41 z"
           id="path5"
           style="fill:url(#linearGradient6)" />
        <rect
           class="cls-2"
           x="1244.8199"
           y="1408.63"
           width="1123.42"
           height="643.25"
           id="rect5"
           style="fill:url(#Dull_Brass-2)" />
      </g>
      <g
         id="Layer_2_copy"
         data-name="Layer 2 copy">
        <path
           class="cls-3"
           d="m 2730.75,388.72 c -6.35,-49.1 -23.41,-97.23 -50.69,-143 -55.39,-93 -147,-166.5 -257.9,-206.87 -110.9,-40.37 -228.29,-43 -330.52,-7.3 -50.34,17.56 -94.34,43.46 -130.78,77 -38.09,35.06 -66.15,76.86 -83.42,124.27 L 898.27,2923 c -17.25,47.4 -22.63,97.48 -16,148.82 6.36,49.1 23.43,97.22 50.7,143 55.38,93.05 147,166.51 257.89,206.88 110.89,40.37 228.31,43 330.53,7.31 50.33,-17.57 94.33,-43.46 130.77,-77 38.11,-35.05 66.17,-76.86 83.42,-124.26 L 2217,1905.17 2714.78,537.53 a 309.84,309.84 0 0 0 18.75,-107.12 326.75,326.75 0 0 0 -2.78,-41.69 z M 2236.09,470 c 5.91,-16.25 22.24,-25.24 36.46,-20.06 14.22,5.18 21,22.55 15,38.81 -6,16.26 -22.24,25.23 -36.47,20.06 -14.23,-5.17 -20.92,-22.6 -14.99,-38.81 z m -174.16,-63.39 c 5.91,-16.25 22.24,-25.23 36.47,-20.06 14.23,5.17 21,22.55 15,38.81 -6,16.26 -22.25,25.24 -36.46,20.06 -14.21,-5.18 -20.94,-22.6 -15.01,-38.86 z M 1523.66,2427.3 c 5.93,-16.26 22.25,-25.24 36.47,-20.06 14.22,5.18 21,22.55 15,38.8 -6,16.25 -22.24,25.24 -36.46,20.07 -14.22,-5.17 -20.92,-22.55 -15.01,-38.81 z m -66.06,181.5 c 5.92,-16.25 22.25,-25.23 36.47,-20.06 14.22,5.17 21,22.55 15,38.82 -6,16.27 -22.24,25.24 -36.47,20.06 -14.23,-5.18 -20.92,-22.56 -15,-38.82 z m -108.08,-244.89 c 5.91,-16.25 22.24,-25.23 36.46,-20.06 14.22,5.17 21,22.55 15,38.81 -6,16.26 -22.24,25.23 -36.47,20.06 -14.23,-5.17 -20.92,-22.55 -14.99,-38.81 z m -66.07,181.51 c 5.92,-16.26 22.24,-25.24 36.47,-20.05 14.23,5.19 21,22.55 15,38.8 -6,16.25 -22.24,25.24 -36.46,20.06 -14.22,-5.18 -20.93,-22.56 -15.01,-38.81 z m -80.61,381.77 c -5.93,16.26 -22.26,25.24 -36.48,20 -14.22,-5.24 -20.95,-22.55 -15,-38.8 5.95,-16.25 22.24,-25.24 36.47,-20.06 14.23,5.18 20.92,22.61 15.01,38.86 z m 29.58,-161.45 c -14.22,-5.18 -21,-22.55 -15,-38.81 6,-16.26 22.24,-25.23 36.46,-20.06 14.22,5.17 21,22.55 15,38.81 -6,16.26 -22.23,25.23 -36.46,20.06 z M 1377,2990.57 c -5.91,16.25 -22.24,25.25 -36.47,20.06 -14.23,-5.19 -21,-22.55 -15,-38.81 6,-16.26 22.25,-25.23 36.47,-20.06 14.22,5.17 20.9,22.55 15,38.81 z m 29.6,-161.45 c -14.23,-5.17 -21,-22.55 -15,-38.8 6,-16.25 22.25,-25.24 36.48,-20.06 14.23,5.18 21,22.55 15,38.8 -6,16.25 -22.28,25.24 -36.5,20.06 z M 1551.13,3054 c -5.91,16.25 -22.25,25.23 -36.46,20.06 -14.21,-5.17 -21,-22.55 -15.05,-38.81 5.95,-16.26 22.24,-25.24 36.47,-20.06 14.23,5.18 20.96,22.51 15.04,38.81 z m 66.07,-181.51 c -5.93,16.26 -22.25,25.24 -36.47,20.06 -14.22,-5.18 -21,-22.55 -15,-38.8 6,-16.25 22.23,-25.24 36.46,-20.06 14.23,5.18 20.92,22.51 15.01,38.76 z m 66.06,-181.5 c -5.92,16.24 -22.25,25.22 -36.47,20.06 -14.22,-5.16 -21,-22.56 -15,-38.82 6,-16.26 22.24,-25.24 36.47,-20.06 14.23,5.18 20.92,22.51 15,38.83 z m 66.07,-181.52 c -5.93,16.26 -22.25,25.24 -36.48,20.06 -14.23,-5.18 -21,-22.55 -15,-38.8 6,-16.25 22.23,-25.24 36.46,-20.06 14.23,5.18 20.93,22.51 15.02,38.76 z m 165.92,-1539.6 c -5.91,16.27 -22.24,25.24 -36.47,20.06 -14.23,-5.18 -21,-22.55 -15,-38.8 6,-16.25 22.22,-25.28 36.43,-20.13 14.21,5.15 20.95,22.58 15.04,38.83 z m 66.06,-181.5 c -5.91,16.25 -22.24,25.23 -36.46,20.06 -14.22,-5.17 -21,-22.55 -15,-38.81 6,-16.26 22.25,-25.23 36.47,-20.06 14.22,5.17 20.91,22.51 14.99,38.77 z m 29.6,-161.46 c -14.22,-5.16 -21,-22.55 -15,-38.8 6,-16.25 22.23,-25.24 36.46,-20.06 14.23,5.18 21,22.56 15.05,38.8 -5.95,16.24 -22.29,25.21 -36.51,20.02 z m 78.49,406.35 c -5.92,16.25 -22.25,25.24 -36.47,20.06 -14.22,-5.18 -20.95,-22.55 -15,-38.81 5.95,-16.26 22.24,-25.23 36.47,-20.06 14.23,5.17 20.92,22.55 15,38.77 z m 66.07,-181.51 c -5.93,16.25 -22.25,25.25 -36.47,20.02 -14.22,-5.23 -21,-22.54 -15,-38.8 6,-16.26 22.23,-25.25 36.46,-20.06 14.23,5.19 20.92,22.55 15.01,38.8 z m 29.59,-161.45 c -14.23,-5.18 -21,-22.55 -15,-38.8 6,-16.25 22.24,-25.24 36.47,-20.07 14.23,5.17 21,22.55 15,38.81 -6,16.26 -22.25,25.21 -36.47,20.02 z m 78.49,406.35 c -5.92,16.25 -22.24,25.23 -36.47,20.06 -14.23,-5.17 -21,-22.55 -15,-38.81 6,-16.26 22.23,-25.24 36.46,-20.06 14.23,5.18 20.93,22.51 15.01,38.77 z m 66.06,-181.51 c -5.91,16.26 -22.24,25.24 -36.46,20.06 -14.22,-5.18 -21,-22.56 -15.05,-38.8 5.95,-16.24 22.25,-25.25 36.48,-20.06 14.23,5.19 20.96,22.51 15.03,38.76 z m 66.07,-181.51 c -5.92,16.25 -22.24,25.23 -36.47,20.06 -14.23,-5.17 -21,-22.55 -15.05,-38.81 5.95,-16.26 22.25,-25.23 36.48,-20.06 14.23,5.17 20.95,22.51 15.04,38.77 z m 66.06,-181.51 c -5.91,16.26 -22.24,25.24 -36.46,20.06 -14.22,-5.18 -21,-22.55 -15.05,-38.8 5.95,-16.25 22.25,-25.24 36.46,-20.06 14.21,5.18 20.96,22.51 15.05,38.76 z"
           id="path6"
           style="fill:url(#Dull_Brass-3)" />
        <rect
           class="cls-4"
           x="1244.8199"
           y="1408.64"
           width="1123.42"
           height="643.25"
           transform="rotate(-70,1806.5317,1730.2589)"
           id="rect6"
           style="fill:url(#Dull_Brass-4)" />
      </g>
    </g>
  </g>
</svg>
