<?xml version="1.0" encoding="UTF-8" standalone="no"?>
<svg
   width="512"
   height="512"
   x="0"
   y="0"
   viewBox="0 0 512 512"
   style="enable-background:new 0 0 512 512"
   xml:space="preserve"
   class=""
   version="1.1"
   id="svg3"
   sodipodi:docname="flip.svg"
   inkscape:version="1.3.2 (091e20e, 2023-11-25, custom)"
   xmlns:inkscape="http://www.inkscape.org/namespaces/inkscape"
   xmlns:sodipodi="http://sodipodi.sourceforge.net/DTD/sodipodi-0.dtd"
   xmlns="http://www.w3.org/2000/svg"
   xmlns:svg="http://www.w3.org/2000/svg"><defs
     id="defs3" /><sodipodi:namedview
     id="namedview3"
     pagecolor="#ffffff"
     bordercolor="#000000"
     borderopacity="0.25"
     inkscape:showpageshadow="2"
     inkscape:pageopacity="0.0"
     inkscape:pagecheckerboard="0"
     inkscape:deskcolor="#d1d1d1"
     inkscape:zoom="1"
     inkscape:cx="256"
     inkscape:cy="255.5"
     inkscape:window-width="1920"
     inkscape:window-height="991"
     inkscape:window-x="-9"
     inkscape:window-y="-9"
     inkscape:window-maximized="1"
     inkscape:current-layer="svg3" /><g
     id="g3"
     transform="matrix(0.265969,0,0,0.265969,200.412,190.82387)"><g
       id="g2"><path
         d="m 365.587,156.706 c -17.548,0.337 -31.667,14.666 -31.667,32.304 v -9.964 c 0,-18.079 -14.792,-33.333 -32.869,-33.114 -17.607,0.214 -31.901,14.562 -31.901,32.308 v -11.85 c 0,-17.78 -14.52,-32.2 -32.29,-32.3 -18.04,-0.07 -32.47,14.5 -32.47,32.3 V 32.3 C 204.39,14.668 190.256,0.339 172.704,0.006 154.599,-0.337 139.78,14.829 139.78,32.938 V 270 c 0,8.515 -7.097,15.38 -15.71,14.984 -8.074,-0.372 -14.29,-7.324 -14.29,-15.406 V 189.93 c -20.46,10.81 -34.29,32.18 -34.29,57.18 l 0.17,55.63 c 0.17,44.4 25,85.03 64.45,105.42 0,0.593 -0.011,17.918 -0.028,38.782 -0.029,35.919 29.081,65.058 65,65.058 h 91.508 c 35.898,0 65,-29.102 65,-65 v -49.53 c 23.48,-20.62 36.93,-50.3 36.93,-81.55 V 189.638 c 0,-18.113 -14.824,-33.28 -32.933,-32.932 z"
         fill="#f8565f"
         data-original="#000000"
         id="path1" /><path
         d="m 431.915,36.035 -31,-29.842 c -5.968,-5.746 -15.464,-5.564 -21.209,0.404 -5.745,5.968 -5.564,15.464 0.404,21.209 l 4.192,4.035 h -76.534 l 4.204,-4.09 C 317.91,21.975 318.041,12.478 312.264,6.54 306.488,0.602 296.991,0.471 291.053,6.248 l -31,30.158 c -6.074,5.909 -6.048,15.681 0.057,21.558 l 31,29.842 c 5.968,5.745 15.464,5.564 21.209,-0.404 5.745,-5.968 5.564,-15.464 -0.404,-21.209 l -4.521,-4.352 h 77.188 l -4.53,4.407 c -5.938,5.776 -6.069,15.273 -0.292,21.211 5.776,5.938 15.274,6.069 21.211,0.292 l 31,-30.158 c 6.074,-5.909 6.049,-15.681 -0.056,-21.558 z"
         fill="#f8565f"
         data-original="#000000"
         id="path2" /></g></g></svg>
