<?xml version="1.0" encoding="UTF-8" standalone="no"?>
<!-- Uploaded to: SVG Repo, www.svgrepo.com, Generator: SVG Repo Mixer Tools -->

<svg
   width="800px"
   height="800px"
   viewBox="0 0 64 64"
   aria-hidden="true"
   role="img"
   class="iconify iconify--emojione"
   preserveAspectRatio="xMidYMid meet"
   version="1.1"
   id="svg2"
   sodipodi:docname="kiss-mark.svg"
   inkscape:version="1.3.2 (091e20e, 2023-11-25, custom)"
   xmlns:inkscape="http://www.inkscape.org/namespaces/inkscape"
   xmlns:sodipodi="http://sodipodi.sourceforge.net/DTD/sodipodi-0.dtd"
   xmlns="http://www.w3.org/2000/svg"
   xmlns:svg="http://www.w3.org/2000/svg">
  <defs
     id="defs2" />
  <sodipodi:namedview
     id="namedview2"
     pagecolor="#ffffff"
     bordercolor="#000000"
     borderopacity="0.25"
     inkscape:showpageshadow="2"
     inkscape:pageopacity="0.0"
     inkscape:pagecheckerboard="0"
     inkscape:deskcolor="#d1d1d1"
     inkscape:zoom="0.97125"
     inkscape:cx="399.4852"
     inkscape:cy="362.93436"
     inkscape:window-width="1920"
     inkscape:window-height="991"
     inkscape:window-x="-9"
     inkscape:window-y="-9"
     inkscape:window-maximized="1"
     inkscape:current-layer="svg2" />
  <path
     d="m 29.814827,33.302747 c 0.253919,-0.130391 0.363722,-0.171567 -0.04804,-0.295096 0.07549,-0.0069 0.514701,0.144117 0.651955,-0.02059 0.116666,-0.08235 -0.446075,-0.185293 -0.480388,-0.267645 0.109803,0.06863 0.590191,0.28137 0.679406,0.08922 -0.01373,-0.06863 -0.08235,-0.199018 -0.322546,-0.267645 0.06863,0.02745 0.212743,0.01373 0.267644,-0.04118 -0.02059,-0.06176 -0.288232,-0.226469 -0.315683,-0.439212 0.08921,0.123528 0.199018,0.336272 0.336272,0.377448 0,0 0.04118,-0.10294 0.192155,-0.144116 -0.137254,0 -0.274508,-0.08235 -0.295096,-0.15098 0.09608,0.157842 0.439212,0.07549 0.583329,0.205881 0,0 -0.02745,-0.08922 0.06863,-0.205881 0.0069,-0.02745 -0.0549,-0.07549 -0.02059,-0.08922 0.01372,0.01373 0.01372,0.06177 0.0549,0.0549 0.08922,-0.03431 0.171567,-0.150979 0.116666,-0.260782 0.04118,0.02059 0.04804,0.116665 0.0549,0.171567 0.0549,0 0.150979,-0.0069 0.253919,0.08921 0.02059,-0.01373 0.01372,-0.04804 0.03431,-0.06176 0.02059,0.06863 0.02059,0.212743 0.116666,0.20588 0.07549,0 0.171567,-0.164704 0.185292,-0.233331 -0.0069,0.157842 0.08235,0.137254 0.109803,0.144116 0.06863,-0.0069 0.144117,-0.233331 0.17843,-0.233331 -0.01373,0.02745 -0.01373,0.116666 -0.0069,0.164705 0.07549,0.01373 0.267645,-0.07549 0.308821,-0.116666 -0.0069,0.03431 -0.02059,0.04804 -0.01373,0.08921 0.06863,0.01373 0.4598,-0.171567 0.549015,-0.363723 -0.10294,-0.04804 -0.185292,-0.10294 -0.267645,-0.130391 -0.04804,0.04118 -0.04804,0.212744 -0.109803,0.199018 0.02745,-0.04118 0.09608,-0.185292 0.04118,-0.233331 -0.260782,-0.17843 -0.130391,0.137254 -0.157841,0.164704 0,-0.0549 -0.116666,-0.377448 -0.226469,-0.349997 -0.02059,0.02745 -0.06176,-0.157842 -0.137254,0.247057 0.0069,-0.06863 0.08921,-0.336272 -0.308821,-0.446075 -0.02059,0.10294 0.116666,0.411761 0.08235,0.480388 -0.01373,-0.130391 -0.116666,-0.446074 -0.185292,-0.528427 -0.15098,-0.06176 -0.418624,-0.171567 -0.53529,-0.130391 -0.137254,0.03431 0.205881,0.343135 0.109803,0.466663 0.02059,-0.17843 -0.192155,-0.370585 -0.336272,-0.370585 -0.295095,0.150979 -0.0549,0.432349 -0.10294,0.569603 -0.02745,-0.164704 -0.109803,-0.199018 -0.09608,-0.391173 -0.07549,0.0549 -0.08235,0.150979 -0.164705,0.226469 -0.04118,0.01373 -0.06176,-0.0069 -0.10294,0 -0.06863,0.07549 0.06176,0.233331 0.03431,0.295095 -0.04804,-0.10294 -0.04804,-0.253919 -0.164705,-0.267645 -0.09608,-0.06176 -0.295095,-0.01373 -0.446074,0.08921 -0.171568,0.04804 -0.336272,0.514702 -0.32941,0.576466 0.01373,0.08235 0.157842,0.09608 0.164705,0.17843 -0.06176,-0.03431 -0.08235,-0.10294 -0.17843,-0.09608 -0.03431,0.07549 -0.0549,0.130391 -0.06176,0.240194 0.10294,0.06863 0.233331,0.130392 0.267645,0.233332 -0.09608,-0.03431 -0.150979,-0.17843 -0.274508,-0.137254 -0.157841,0.446075 0.03431,0.363723 0.0549,0.425487 -0.0549,0.02059 -0.109803,-0.03431 -0.130391,0 -0.123528,0.226469 0.02059,0.226469 0.03431,0.267645 h -0.08921 c -0.04804,0.04118 -0.0549,0.185292 -0.04118,0.253919 0.102941,-0.04804 0.322547,-0.09608 0.267645,-0.219606 0.0549,0.01373 0.116666,0.01373 0.150979,-0.01373"
     fill="#c94747"
     id="path1"
     style="stroke-width:0.0686269" />
  <path
     d="m 32.525589,32.13609 c -0.116666,0.02745 -0.473526,0.0549 -0.562741,0.157842 0.102941,0.164704 0.507839,0.192155 0.61078,0.356859 -0.157842,-0.09608 -0.480389,-0.233331 -0.686269,-0.288233 -0.247057,-0.0549 -0.171568,0.08235 -0.25392,0.281371 0.03431,0.07549 0.150979,0.28137 0.157842,0.349997 -0.06176,-0.06863 -0.116666,-0.384311 -0.219606,-0.212744 -0.164705,0.267645 0.08921,0.322547 0.199018,0.569604 -0.06863,-0.09608 -0.205881,-0.281371 -0.295096,-0.391174 l -0.06176,0.102941 c -0.10294,-0.02745 -0.150979,-0.02059 -0.150979,-0.02059 0.06176,0.150979 0.25392,0.4598 0.308821,0.555877 -0.185292,-0.185292 -0.267645,-0.363722 -0.363722,-0.56274 -0.08235,0 -0.157842,-0.03431 -0.240194,-0.04804 -0.0069,0.171567 0.06863,0.28137 0.06863,0.404899 -0.06177,-0.18529 -0.102941,-0.583326 -0.466664,-0.452935 -0.10294,0.212744 0.04804,0.624505 0.0549,0.802935 -0.06863,-0.199018 -0.06176,-0.480388 -0.150979,-0.651956 -0.116665,-0.0069 -0.301958,-0.01373 -0.267645,0.06177 -0.233331,0.06176 -0.84411,0.425486 -0.74117,0.521564 0.185293,0.17843 0.590191,0.411761 0.850973,0.4598 0.01372,-0.06863 0.04118,-0.185292 0.06863,-0.226469 0.02745,0.109803 0.06176,0.247057 0.171568,0.274508 0.02745,-0.03431 -0.01373,-0.123528 -0.0069,-0.17843 0.09608,0.116666 0.356859,0.25392 0.542152,0.164705 0.02059,-0.06863 -0.0549,-0.164705 -0.01373,-0.212744 0.02745,0.185293 0.452938,0.199018 0.487251,0.03431 0.01373,-0.07549 -0.06176,-0.123529 -0.06176,-0.171568 0.06176,0.06863 0.08921,0.157842 0.192155,0.15098 0.226469,-0.01373 0.07549,-0.329409 0.03431,-0.452938 0.0549,0.109803 0.123529,0.274508 0.205881,0.35686 0.06176,-0.01373 0.08921,-0.10294 0.0549,-0.17843 0.199018,0.137254 0.219606,0.02745 0.144116,-0.247057 0,-0.0069 -0.0069,-0.01373 -0.0069,-0.02059 0,0.0069 0.0069,0.01373 0.0069,0.02059 0.02059,0.0549 0.09608,0.185293 0.144117,0.205881 0.17843,-0.07549 -0.07549,-0.377448 -0.109803,-0.432349 0.07549,0.06176 0.164704,0.260782 0.28137,0.288232 0.02059,-0.01373 0.02059,-0.123528 0.03431,-0.144116 -0.04118,-0.267645 -0.308821,-0.439212 -0.411761,-0.610779 0.164704,0.150979 0.329409,0.466663 0.542152,0.576466 0.06863,-0.08921 -0.06176,-0.32941 -0.10294,-0.398036 0.06176,0.02745 0.164704,0.185292 0.240194,0.192155 0.07549,-0.04118 -0.03431,-0.240194 -0.08235,-0.308821 0.03431,0.01373 0.130391,0.116666 0.185293,0.10294 0.02059,-0.09608 -0.102941,-0.212743 -0.130391,-0.288233 0.03431,0.0069 0.144116,0.116666 0.192155,0.116666 0.04804,-0.199018 0.130391,-0.432349 0.116666,-0.899012 -0.06863,0.0069 -0.418624,0.267645 -0.507839,0.288233"
     fill="#ed4c5c"
     id="path2"
     style="stroke-width:0.0686269" />
</svg>
